<?xml version="1.0" standalone="no"?>
<!DOCTYPE svg PUBLIC "-//W3C//DTD SVG 20010904//EN"
 "http://www.w3.org/TR/2001/REC-SVG-20010904/DTD/svg10.dtd">
<svg version="1.0" xmlns="http://www.w3.org/2000/svg"
 width="1001.000000pt" height="1001.000000pt" viewBox="0 0 1001.000000 1001.000000"
 preserveAspectRatio="xMidYMid meet">
<metadata>
Created by potrace 1.11, written by Peter Selinger 2001-2013
</metadata>
<g transform="translate(0.000000,1001.000000) scale(0.100000,-0.100000)"
fill="#000000" stroke="none">
<path d="M5016 9453 c-1 -1 -47 -5 -102 -7 -102 -6 -173 -11 -259 -22 -27 -3
-66 -7 -85 -9 -19 -1 -35 -4 -35 -5 0 -2 -13 -4 -30 -5 -16 -1 -46 -6 -65 -10
-19 -4 -48 -8 -65 -10 -34 -3 -87 -12 -125 -20 -14 -3 -45 -8 -70 -11 -25 -3
-50 -10 -56 -15 -6 -5 -14 -6 -17 -3 -3 3 -12 2 -19 -2 -7 -4 -19 -9 -28 -10
-14 -1 -61 -11 -100 -19 -8 -2 -15 -4 -15 -5 0 -1 -9 -3 -20 -5 -11 -2 -33 -6
-50 -10 -16 -4 -37 -8 -45 -10 -8 -2 -17 -4 -20 -5 -3 -1 -8 -2 -12 -1 -5 0
-8 -4 -8 -10 0 -5 -4 -7 -10 -4 -5 3 -16 3 -22 -2 -7 -4 -16 -8 -20 -9 -5 -1
-11 -3 -15 -4 -5 -1 -12 -3 -18 -4 -5 -1 -30 -8 -55 -16 -25 -7 -51 -14 -57
-16 -11 -2 -46 -14 -123 -42 -20 -7 -31 -10 -55 -15 -11 -3 -45 -16 -75 -29
-84 -38 -124 -53 -132 -50 -5 1 -8 -3 -8 -9 0 -5 -4 -8 -8 -5 -5 3 -20 -1 -35
-9 -14 -7 -28 -11 -31 -8 -3 3 -17 -4 -33 -14 -15 -11 -64 -37 -108 -57 -155
-73 -187 -89 -198 -100 -7 -6 -41 -30 -77 -53 -91 -60 -187 -144 -243 -212
-20 -24 -57 -101 -62 -128 -2 -10 -4 -18 -5 -18 -1 0 -4 -9 -6 -20 -8 -34 -5
-84 6 -105 6 -11 8 -20 5 -20 -11 0 30 -56 70 -95 36 -36 70 -55 130 -73 11
-3 26 -12 33 -19 7 -7 20 -13 28 -13 20 0 26 -1 54 -12 14 -5 33 -12 43 -14 9
-2 27 -7 40 -10 12 -3 31 -7 42 -9 57 -11 70 -18 113 -63 26 -27 58 -64 72
-82 14 -18 32 -41 42 -51 33 -35 181 -268 183 -289 1 -3 8 -21 17 -40 27 -57
40 -121 40 -190 -1 -104 -12 -144 -51 -190 -12 -14 -34 -40 -49 -58 -47 -59
-107 -117 -135 -131 -15 -8 -27 -18 -27 -23 0 -4 -4 -8 -10 -8 -12 0 -71 -40
-102 -71 -26 -25 -67 -59 -112 -94 -15 -11 -60 -51 -101 -90 -41 -38 -106 -99
-144 -135 -38 -36 -68 -66 -66 -68 2 -3 -10 -17 -83 -96 -18 -20 -29 -36 -25
-36 4 0 -4 -11 -17 -25 -41 -42 -55 -58 -80 -95 -14 -19 -30 -41 -37 -48 -7
-7 -13 -16 -13 -20 0 -4 -12 -20 -26 -37 -14 -16 -32 -42 -40 -57 -8 -16 -19
-28 -25 -28 -6 0 -8 -4 -5 -9 3 -4 -5 -21 -19 -37 -13 -15 -22 -31 -19 -35 2
-4 -2 -11 -10 -16 -19 -11 -56 -75 -50 -85 3 -4 -1 -11 -10 -14 -8 -3 -18 -19
-21 -35 -4 -16 -11 -29 -16 -29 -5 0 -9 -6 -9 -14 0 -8 -5 -16 -10 -18 -6 -2
-12 -14 -15 -27 -2 -14 -9 -27 -14 -30 -5 -3 -16 -28 -25 -56 -10 -27 -26 -66
-36 -85 -31 -60 -59 -124 -63 -145 -2 -11 -13 -41 -25 -67 -12 -26 -23 -55
-25 -65 -1 -10 -5 -22 -8 -28 -5 -8 -17 -45 -24 -75 0 -3 -6 -15 -13 -27 -7
-13 -10 -23 -7 -23 3 0 -2 -16 -10 -36 -8 -20 -13 -40 -10 -44 3 -5 0 -12 -6
-15 -5 -4 -8 -13 -5 -21 3 -7 1 -16 -5 -20 -6 -3 -8 -12 -5 -19 2 -7 2 -16 -2
-19 -6 -6 -8 -15 -17 -61 -2 -11 -7 -31 -10 -45 -3 -14 -7 -37 -10 -52 -2 -15
-6 -31 -8 -36 -3 -4 -8 -30 -12 -57 -4 -28 -9 -61 -11 -75 -34 -220 -44 -468
-30 -765 6 -131 11 -184 21 -230 4 -16 8 -57 9 -90 1 -33 5 -66 9 -72 5 -7 10
-23 13 -35 10 -47 14 -64 19 -85 3 -13 7 -32 10 -44 2 -11 7 -29 10 -39 3 -10
8 -28 10 -39 10 -46 14 -57 24 -84 6 -15 7 -27 4 -27 -4 0 -2 -5 4 -11 6 -6 9
-17 7 -24 -3 -7 -1 -16 5 -19 6 -4 8 -13 5 -20 -3 -7 6 -39 20 -70 14 -31 25
-60 25 -64 0 -4 7 -23 15 -42 8 -19 25 -62 37 -95 13 -33 29 -67 35 -75 7 -8
13 -18 13 -22 1 -5 2 -11 2 -15 1 -5 2 -12 3 -18 3 -20 60 -135 67 -135 4 0
10 -14 14 -30 4 -17 12 -36 19 -43 7 -6 32 -50 57 -97 24 -47 50 -91 57 -98 6
-7 12 -17 12 -21 0 -4 9 -16 19 -28 10 -11 26 -34 35 -51 9 -18 21 -32 26 -32
6 0 10 -5 10 -10 0 -10 48 -89 61 -100 3 -3 20 -27 39 -55 18 -27 48 -64 66
-81 19 -17 34 -34 34 -37 0 -15 299 -321 373 -382 27 -22 59 -49 72 -60 12
-11 32 -27 45 -35 12 -8 36 -27 54 -42 17 -15 34 -28 37 -28 5 0 22 -13 66
-50 7 -5 17 -10 23 -10 5 0 10 -4 10 -9 0 -5 8 -12 18 -15 9 -3 30 -17 46 -31
16 -14 33 -25 38 -25 5 0 14 -5 21 -10 48 -41 62 -50 74 -50 7 0 13 -3 13 -7
0 -9 84 -53 140 -74 19 -7 38 -17 41 -22 3 -4 12 -9 20 -11 18 -3 112 -49 119
-58 3 -3 34 -16 70 -29 36 -12 67 -26 70 -30 3 -5 25 -15 48 -23 43 -15 45
-16 61 -16 5 0 16 -7 24 -15 8 -8 28 -17 44 -19 16 -3 63 -17 104 -31 41 -14
83 -28 94 -30 11 -2 20 -4 20 -5 0 -2 15 -5 55 -13 14 -3 43 -10 65 -15 36
-10 80 -18 140 -27 11 -2 22 -4 25 -6 3 -1 10 -3 15 -4 6 -2 12 -4 15 -5 3 -1
16 -3 30 -5 14 -2 43 -6 65 -10 132 -21 168 -25 295 -32 231 -12 471 -5 670
21 19 2 60 7 90 11 69 8 145 21 145 25 0 1 9 3 20 4 16 2 64 13 95 21 3 1 23
5 45 10 22 4 45 10 50 14 6 3 19 7 30 8 11 2 31 6 45 10 14 3 28 6 33 5 4 -1
7 3 7 10 0 6 3 9 6 6 3 -4 20 0 39 8 18 7 48 16 66 19 18 3 38 10 45 15 6 6
13 7 17 4 3 -3 16 0 29 7 12 7 26 12 31 11 4 -1 7 2 7 8 0 6 3 9 8 8 4 0 14 1
22 4 8 4 24 9 35 14 28 10 32 11 55 13 11 0 29 10 40 21 11 11 20 18 20 15 0
-3 14 1 30 10 17 9 30 13 30 9 0 -4 7 -1 15 6 8 7 15 10 15 6 0 -7 97 45 154
82 21 15 45 27 54 29 9 1 18 6 20 12 2 5 19 15 38 21 19 6 34 15 34 20 0 5 14
11 30 15 17 4 30 10 30 15 0 5 8 11 18 14 10 4 27 14 38 24 10 10 42 33 69 52
48 32 64 44 134 100 17 14 35 25 39 25 4 0 19 10 32 23 14 12 43 39 65 58 157
138 325 300 325 315 0 5 7 9 15 9 8 0 15 4 15 9 0 5 11 19 25 32 13 13 25 30
25 37 0 6 5 12 10 12 6 0 10 5 10 10 0 6 10 22 23 35 31 34 47 54 48 59 0 3
13 19 30 37 16 17 29 36 29 43 0 6 8 19 18 27 9 9 24 26 32 39 8 12 27 39 41
60 15 20 35 52 44 70 10 19 23 40 29 47 27 30 35 43 81 133 27 52 57 104 67
115 10 12 19 30 21 40 2 11 21 56 42 100 21 44 39 88 40 97 1 10 8 25 15 33 7
8 14 27 16 41 1 14 12 45 23 70 12 24 21 48 21 54 0 6 12 38 26 71 14 34 23
63 20 66 -2 3 0 17 6 32 11 29 18 55 23 86 2 11 4 22 6 25 1 3 3 10 4 15 2 6
4 12 5 15 1 3 3 12 5 20 2 8 7 26 10 40 4 14 8 35 10 47 2 11 6 29 9 40 5 17
8 32 22 123 3 19 7 49 10 65 2 17 7 50 9 75 3 25 7 61 10 80 24 182 24 506 0
730 -2 25 -7 70 -9 100 -3 30 -8 66 -11 80 -3 14 -8 40 -11 59 -3 18 -8 43
-10 55 -3 11 -7 30 -9 41 -2 11 -6 31 -9 45 -4 14 -8 37 -11 52 -3 15 -9 38
-15 52 -5 15 -8 26 -5 26 2 0 -2 18 -10 40 -8 22 -12 40 -10 40 4 0 0 14 -31
95 -10 27 -12 35 -19 70 -3 16 -10 34 -16 41 -5 6 -6 13 -4 16 3 3 -8 35 -25
71 -16 36 -30 72 -30 81 0 18 -17 51 -40 80 -8 10 -14 20 -12 22 1 2 2 5 1 7
0 1 -2 13 -3 26 -2 14 -8 27 -14 29 -7 2 -12 9 -12 15 0 12 -69 158 -79 167
-3 3 -17 26 -31 53 -13 26 -27 47 -31 47 -3 0 -16 23 -29 50 -13 28 -27 50
-32 50 -4 0 -8 6 -8 13 0 11 -101 168 -124 193 -6 7 -20 24 -31 40 -11 15 -28
36 -37 46 -10 10 -18 21 -18 26 0 4 -16 25 -36 47 -19 22 -54 62 -77 88 -82
94 -234 247 -245 247 -7 0 -12 4 -12 10 0 11 -56 70 -66 70 -4 0 -17 11 -30
25 -13 14 -26 25 -29 25 -4 0 -13 6 -20 13 -71 62 -240 187 -254 187 -5 0 -11
4 -13 8 -5 13 -191 132 -205 132 -7 0 -13 3 -13 8 0 9 -59 42 -81 46 -8 1 -26
10 -41 20 -15 10 -33 19 -40 20 -19 4 -112 50 -119 59 -8 11 -109 48 -109 40
0 -3 -8 2 -19 11 -15 14 -89 42 -99 37 -1 -1 -16 6 -33 15 -17 8 -38 17 -47
19 -10 3 -48 16 -87 30 -38 14 -78 25 -87 25 -10 0 -18 4 -18 9 0 11 -23 20
-85 35 -42 9 -103 42 -117 61 -4 6 -11 10 -16 10 -15 0 -66 59 -87 101 -11 21
-24 42 -30 46 -5 4 -6 8 -1 8 5 0 3 7 -4 15 -7 8 -9 15 -5 15 4 0 2 6 -4 14
-16 19 -23 73 -23 166 0 87 15 275 22 275 3 0 9 31 14 75 5 43 10 63 30 118 8
23 15 44 16 47 0 3 0 6 1 8 0 1 2 10 4 20 2 10 10 33 19 52 9 18 17 41 19 51
8 37 23 62 55 89 17 15 32 24 32 21 0 -8 15 6 119 104 47 44 80 80 75 80 -5 0
-4 4 2 8 14 10 57 82 49 82 -4 0 -2 7 5 15 7 8 9 15 5 15 -4 0 -2 7 5 15 6 8
9 19 5 25 -4 6 -2 17 5 25 9 10 8 19 -1 37 -7 13 -12 24 -11 26 1 1 2 3 1 5 0
1 -2 10 -4 20 -4 20 -57 107 -66 107 -3 0 -19 11 -34 24 -16 14 -40 28 -54 31
-14 4 -28 10 -31 15 -5 9 -165 59 -205 65 -11 2 -20 4 -20 5 0 2 -33 10 -60
14 -11 2 -38 7 -60 11 -58 10 -90 14 -185 21 -83 6 -429 12 -434 7z m-466
-1516 c8 -2 25 -9 38 -15 12 -7 22 -10 22 -6 0 8 87 -43 135 -80 47 -36 130
-120 165 -165 14 -18 30 -39 37 -46 41 -44 215 -365 198 -365 -3 0 4 -18 15
-40 11 -22 18 -40 16 -40 -3 0 2 -16 10 -35 20 -50 53 -197 61 -274 22 -225
-12 -388 -99 -473 -33 -33 -57 -43 -113 -52 -21 -4 -40 -8 -43 -10 -2 -2 -27
3 -55 11 -29 8 -56 15 -62 16 -26 7 -95 42 -95 49 0 4 -5 8 -10 8 -12 0 -28
12 -68 51 -15 14 -37 31 -49 38 -13 6 -23 16 -23 22 0 6 -18 28 -40 49 -22 21
-40 43 -40 48 0 5 -7 12 -15 16 -8 3 -15 12 -15 20 0 7 -7 16 -15 20 -8 3 -15
12 -15 21 0 8 -4 15 -10 15 -5 0 -10 4 -10 9 0 5 -18 39 -40 75 -55 91 -98
185 -142 314 -32 95 -54 185 -62 257 -3 28 -9 70 -12 95 -19 151 23 334 96
411 53 57 141 77 240 56z m1653 -1376 c15 -6 27 -8 27 -5 0 4 11 -1 25 -10 14
-9 25 -14 25 -11 0 13 140 -70 148 -87 2 -5 8 -8 14 -8 5 0 16 -6 24 -12 8 -7
32 -29 55 -48 84 -72 189 -182 189 -198 0 -6 6 -15 14 -19 16 -9 86 -110 86
-124 0 -5 4 -9 9 -9 13 0 131 -241 131 -267 0 -12 4 -24 9 -27 5 -3 12 -27 16
-53 5 -27 10 -55 12 -63 5 -22 4 -119 -1 -138 -3 -10 -8 -30 -10 -47 -3 -16
-10 -31 -16 -33 -5 -2 -10 -10 -10 -18 0 -7 -13 -20 -30 -29 -16 -9 -30 -13
-30 -11 0 3 -17 -1 -37 -8 -30 -10 -49 -10 -101 1 -35 7 -73 18 -85 25 -12 6
-23 10 -25 9 -6 -5 -91 40 -102 55 -7 7 -18 14 -24 14 -6 0 -23 10 -37 23 -15
12 -41 33 -59 47 -39 29 -160 146 -160 154 0 3 -13 19 -29 35 -38 39 -121 155
-121 170 0 6 -4 11 -9 11 -4 0 -31 45 -60 100 -28 55 -48 100 -45 100 4 0 0 7
-7 17 -8 9 -13 19 -13 22 1 3 -3 17 -8 31 -5 14 -12 34 -14 45 -2 11 -6 31 -9
45 -3 14 -8 36 -11 50 -14 68 6 190 39 231 15 20 51 39 85 45 15 3 29 8 32 10
7 8 79 -2 113 -15z m-2154 -712 c53 -29 141 -123 181 -192 33 -58 62 -141 80
-232 6 -33 16 -76 21 -95 13 -44 17 -295 6 -375 -27 -202 -40 -247 -123 -423
-65 -137 -153 -235 -259 -287 -74 -36 -177 -41 -235 -11 -106 56 -146 101
-230 261 -23 42 -41 102 -61 203 -38 187 -38 291 -3 562 3 25 10 49 15 55 5 5
9 19 9 32 0 34 27 107 81 221 39 80 65 118 121 178 101 106 161 134 283 130
52 -2 81 -9 114 -27z m-1025 -21 c85 -76 108 -291 51 -468 -28 -88 -63 -160
-77 -160 -4 0 -8 -5 -8 -11 0 -11 -67 -78 -79 -80 -4 0 -13 -2 -21 -5 -55 -15
-71 -15 -102 0 -33 16 -78 65 -82 89 -1 7 -7 28 -14 47 -6 19 -14 56 -16 81
-3 25 -6 49 -7 55 -1 5 -1 11 0 14 2 3 4 25 6 50 2 25 7 60 10 77 3 18 6 35 5
38 0 3 7 19 15 35 9 17 13 30 10 30 -3 0 0 10 7 23 7 12 13 24 13 27 4 22 18
50 26 50 5 0 9 6 9 13 0 13 50 72 82 95 9 7 29 15 44 18 16 3 31 7 33 10 15
14 63 0 95 -28z m2640 -248 c66 -31 196 -131 225 -173 8 -12 40 -51 72 -87 80
-92 116 -149 186 -291 121 -246 155 -332 194 -494 6 -22 16 -59 24 -82 8 -23
17 -63 21 -90 3 -26 12 -86 19 -133 7 -47 12 -151 12 -233 0 -163 -13 -221
-75 -328 -101 -176 -283 -181 -484 -15 -160 133 -331 384 -428 632 -17 43 -37
93 -45 111 -8 17 -15 36 -15 42 0 6 -4 19 -9 29 -33 59 -85 267 -105 422 -16
116 -14 388 3 433 6 15 7 27 4 27 -4 0 -2 5 5 12 7 7 12 20 12 29 0 24 45 112
77 149 70 83 181 98 307 40z m1841 -326 c104 -23 247 -135 330 -260 123 -185
231 -486 274 -759 6 -38 13 -81 16 -95 12 -62 19 -212 19 -415 -1 -262 -6
-335 -39 -500 -8 -38 -16 -83 -19 -100 -32 -179 -147 -469 -234 -585 -142
-191 -289 -267 -457 -236 -99 19 -246 134 -330 261 -110 165 -226 469 -261
685 -2 14 -7 36 -10 50 -3 14 -8 41 -10 60 -3 19 -7 51 -9 70 -20 150 -26 517
-12 680 23 259 95 540 189 733 26 54 48 100 48 103 0 14 113 155 157 196 57
52 154 105 210 114 21 3 39 7 41 9 4 4 54 -2 97 -11z m-4994 -468 c48 -7 79
-19 164 -63 119 -62 194 -121 356 -282 193 -194 341 -387 528 -694 117 -191
272 -492 351 -682 23 -55 50 -118 60 -140 26 -58 114 -306 143 -405 54 -182
111 -430 122 -535 20 -186 23 -292 12 -387 -9 -86 -29 -182 -38 -193 -5 -5 -9
-15 -9 -23 0 -7 -18 -40 -40 -72 -57 -84 -109 -112 -208 -115 -91 -2 -125 6
-213 50 -97 49 -107 54 -194 121 -143 109 -375 359 -499 538 -136 196 -241
361 -301 470 -12 23 -31 58 -43 79 -38 65 -148 288 -187 377 -59 135 -62 141
-98 230 -87 211 -190 536 -223 705 -2 11 -9 45 -15 75 -7 30 -13 66 -14 80 -2
14 -5 39 -8 55 -41 223 -23 512 40 641 49 104 114 158 205 170 24 4 45 8 46 9
2 2 9 2 15 0 7 -2 28 -6 48 -9z m2198 -460 c94 -22 226 -131 332 -276 29 -39
149 -236 149 -244 0 -3 18 -42 40 -87 22 -45 40 -86 40 -91 0 -4 9 -27 20 -51
36 -77 136 -404 155 -507 1 -8 5 -31 9 -50 3 -19 8 -46 11 -60 12 -57 35 -229
42 -315 8 -89 7 -414 -1 -480 -38 -321 -133 -531 -276 -609 -85 -46 -179 -40
-283 17 -219 123 -444 494 -585 968 -40 134 -94 381 -107 489 -4 30 -9 66 -11
80 -23 159 -23 548 0 650 3 14 8 42 11 62 20 148 94 330 167 413 55 63 144
105 211 100 28 -2 63 -6 76 -9z m1687 -1149 c129 -66 230 -243 294 -512 30
-128 35 -154 46 -255 9 -76 9 -443 1 -515 -15 -136 -20 -166 -37 -240 -86
-375 -241 -604 -412 -614 -61 -3 -141 32 -194 86 -81 80 -161 246 -209 433
-49 187 -59 285 -58 550 0 206 8 321 28 390 2 8 7 31 10 50 20 120 72 285 117
374 121 242 265 329 414 253z"/>
</g>
</svg>
